<svg width="24" height="25" viewBox="0 0 24 25" fill="none" xmlns="http://www.w3.org/2000/svg">
<g id="Home" clip-path="url(#clip0_132_150)">
<path id="Vector" d="M9.99961 19.5V14.5H13.9996V19.5C13.9996 20.05 14.4496 20.5 14.9996 20.5H17.9996C18.5496 20.5 18.9996 20.05 18.9996 19.5V12.5H20.6996C21.1596 12.5 21.3796 11.93 21.0296 11.63L12.6696 4.09997C12.2896 3.75997 11.7096 3.75997 11.3296 4.09997L2.96961 11.63C2.62961 11.93 2.83961 12.5 3.29961 12.5H4.99961V19.5C4.99961 20.05 5.44961 20.5 5.99961 20.5H8.99961C9.54961 20.5 9.99961 20.05 9.99961 19.5Z" fill="#32283E"/>
</g>
<defs>
<clipPath id="clip0_132_150">
<rect width="24" height="24" fill="white" transform="translate(0 0.5)"/>
</clipPath>
</defs>
</svg>
